HIERARCHY
ROOT Hips
{
	OFFSET 0.000000 0.000000 0.000000 
	CHANNELS 6 Xposition Yposition Zposition Zrotation Yrotation Xrotation
	JOINT LeftUpLeg
	{
		OFFSET 1.363060 -1.794630 0.839290 
		CHANNELS 3 Zrotation Yrotation Xrotation
		JOINT LeftLeg
		{
			OFFSET 2.448110 -6.726130 0.000000 
			CHANNELS 3 Zrotation Yrotation Xrotation
			JOINT LeftFoot
			{
				OFFSET 2.562200 -7.039590 0.000000 
				CHANNELS 3 Zrotation Yrotation Xrotation
				JOINT LeftToeBase
				{
					OFFSET 0.157640 -0.433110 2.322550 
					CHANNELS 3 Zrotation Yrotation Xrotation
					End Site
					{
						OFFSET 0.000000 0.000000 0.000000 
					}
				}
			}
		}
	}
	JOINT RightUpLeg
	{
		OFFSET -1.305520 -1.794630 0.839290 
		CHANNELS 3 Zrotation Yrotation Xrotation
		JOINT RightLeg
		{
			OFFSET -2.542530 -6.985550 0.000000 
			CHANNELS 3 Zrotation Yrotation Xrotation
			JOINT RightFoot
			{
				OFFSET -2.568260 -7.056230 0.000000 
				CHANNELS 3 Zrotation Yrotation Xrotation
				JOINT RightToeBase
				{
					OFFSET -0.164730 -0.452590 2.363150 
					CHANNELS 3 Zrotation Yrotation Xrotation
					End Site
					{
						OFFSET 0.000000 0.000000 0.000000 
					}
				}
			}
		}
	}
	JOINT Spine
	{
		OFFSET 0.028270 2.035590 -0.193380 
		CHANNELS 3 Zrotation Yrotation Xrotation
		JOINT Spine1
		{
			OFFSET 0.056720 2.048850 -0.042750 
			CHANNELS 3 Zrotation Yrotation Xrotation
			JOINT Neck1
			{
				OFFSET -0.054170 1.746240 0.172020 
				CHANNELS 3 Zrotation Yrotation Xrotation
				JOINT Head
				{
					OFFSET 0.104070 1.761360 -0.123970 
					CHANNELS 3 Zrotation Yrotation Xrotation
					End Site
					{
						OFFSET 0.000000 0.000000 0.000000 
					}
				}
			}
			JOINT LeftArm
			{
				OFFSET 3.362410 1.200890 -0.311210 
				CHANNELS 3 Zrotation Yrotation Xrotation
				JOINT LeftForeArm
				{
					OFFSET 4.983000 -0.000000 -0.000000 
					CHANNELS 3 Zrotation Yrotation Xrotation
					JOINT LeftHand
					{
						OFFSET 3.483560 -0.000000 -0.000000 
						CHANNELS 3 Zrotation Yrotation Xrotation
						JOINT LeftHandIndex1
						{
							OFFSET 0.715260 -0.000000 -0.000000 
							CHANNELS 3 Zrotation Yrotation Xrotation
							End Site
							{
								OFFSET 0.000000 0.000000 0.000000 
							}
						}
					}
				}
			}
			JOINT RightArm
			{
				OFFSET -3.136600 1.374050 -0.404650 
				CHANNELS 3 Zrotation Yrotation Xrotation
				JOINT RightForeArm
				{
					OFFSET -5.241900 -0.000000 -0.000000 
					CHANNELS 3 Zrotation Yrotation Xrotation
					JOINT RightHand
					{
						OFFSET -3.444170 -0.000000 -0.000000 
						CHANNELS 3 Zrotation Yrotation Xrotation
						JOINT RightHandIndex1
						{
							OFFSET -0.622530 -0.000000 -0.000000 
							CHANNELS 3 Zrotation Yrotation Xrotation
							End Site
							{
								OFFSET 0.000000 0.000000 0.000000 
							}
						}
					}
				}
			}
		}
	}
}
MOTION
Frames: 10
Frame Time: 0.041667
7.406360 17.112057 1.665859 165.660139 -79.203730 -162.373829 -7.347386 12.657203 -31.789435 7.279075 16.931371 51.447233 0.847682 1.053179 0.465457 0.104300 -2.082800 -5.734400 -0.304530 -2.540450 -23.142593 -4.824007 -14.115191 42.047747 0.650875 -4.962445 3.928694 -1.132600 -6.759100 19.003500 0.028494 1.090566 -1.195196 3.303079 0.228972 -1.744972 5.746018 -14.809019 4.278232 1.566500 -7.435700 11.200500 -65.950970 -16.667838 50.849636 36.664419 -45.029048 -18.390101 -0.389650 -0.093611 -15.862100 -7.125000 0.000000 0.000000 62.795037 18.807022 31.366405 -41.812677 45.068777 -22.349836 0.720313 2.604496 -28.517580 7.125000 0.000000 0.000000 
7.393328 17.117579 1.683640 164.901513 -79.029425 -161.506435 -7.607666 12.752100 -31.681115 7.242000 16.929908 51.376942 0.804064 1.170472 0.296390 0.080600 -1.831300 -5.039600 -0.559191 -2.503753 -23.106950 -4.777449 -14.108629 41.912417 0.586149 -4.659562 3.002259 -0.553100 -4.764100 13.237100 -0.232036 1.227979 -0.870216 1.658444 0.342013 -0.160510 6.647920 -15.688685 3.966045 2.217800 -7.698100 11.249100 -64.918418 -18.198099 52.629525 36.680560 -44.995051 -18.289811 -0.306816 -0.108320 -15.461814 -7.125000 0.000000 0.000000 63.457024 20.314480 30.226329 -41.326703 44.812779 -22.022908 0.912882 2.505453 -28.549321 7.125000 0.000000 0.000000 
7.383168 17.110511 1.697445 165.253648 -78.805450 -161.994781 -7.642875 12.922438 -31.453746 7.263312 16.963276 51.460292 0.847142 1.072831 0.134878 0.073100 -1.744100 -4.799100 -0.611556 -2.373741 -22.843722 -4.740930 -14.109982 41.846793 0.522685 -4.367481 1.962249 -0.178300 -2.720100 7.500500 -0.281367 1.214580 -0.613268 1.616448 0.290915 0.785721 7.910907 -15.991310 3.281522 3.275400 -7.749900 10.964900 -64.889122 -19.030129 53.068655 36.719906 -45.045604 -18.294087 -0.218291 -0.130598 -14.625003 -7.125000 0.000000 0.000000 63.490235 21.178656 30.217867 -41.315051 44.827655 -22.027117 0.961566 2.510071 -28.755902 7.125000 0.000000 0.000000 
7.368259 17.106866 1.713790 166.229193 -78.510790 -162.968780 -7.620493 13.084960 -31.446322 7.291916 16.970156 51.522413 0.844701 1.088174 -0.004345 0.070100 -1.708500 -4.700700 -0.574063 -2.140022 -22.819300 -4.704032 -14.108087 41.785522 0.453594 -4.076549 0.975719 -0.008600 -0.600000 1.648700 -0.290908 1.263260 -0.580948 1.741086 0.308269 0.758048 8.755384 -16.169981 3.058954 4.014700 -7.796200 11.006300 -65.284691 -18.941467 53.284997 36.801373 -45.139481 -18.355473 -0.133131 -0.138164 -13.684268 -7.125000 0.000000 0.000000 63.539923 20.948997 30.374266 -41.538478 44.987288 -22.196109 0.941907 2.501579 -29.056578 7.125000 0.000000 0.000000 
7.370026 17.107971 1.721742 166.404947 -78.412612 -163.159750 -7.624433 13.085880 -31.453807 7.312134 16.984000 51.578337 0.799191 1.205871 -0.116917 0.068700 -1.691100 -4.652800 -0.582111 -2.026161 -22.806012 -4.691381 -14.114836 41.799683 0.349656 -3.680374 -0.573008 -0.172000 2.672000 -7.366900 -0.290839 1.265754 -0.568781 1.751590 0.307740 0.776022 8.900598 -16.282585 2.940628 4.096000 -7.835000 10.966300 -65.661756 -18.991014 53.343304 36.918585 -45.223739 -18.440712 -0.085799 -0.123553 -13.174298 -7.125000 0.000000 0.000000 63.596015 20.905377 30.532931 -41.572272 45.028265 -22.227090 0.990173 2.507849 -29.622189 7.125000 0.000000 0.000000 
7.374333 17.103332 1.725828 166.488127 -78.332178 -163.270156 -7.630507 13.097569 -31.450279 7.332514 16.997595 51.638670 0.780665 1.254343 -0.207007 0.063400 -1.624300 -4.468400 -0.597954 -1.917685 -22.812803 -4.695730 -14.135205 41.867804 0.227110 -3.276000 -2.158421 -0.734900 5.476900 -15.274000 -0.285597 1.247015 -0.569973 1.817906 0.294865 0.703153 9.080096 -16.402721 2.818544 4.203800 -7.878500 10.931600 -66.099169 -18.954614 53.168791 37.074296 -45.322688 -18.562881 -0.072549 -0.123287 -13.185173 -7.125000 0.000000 0.000000 63.641859 20.789222 30.754242 -41.582595 45.083310 -22.287510 1.073614 2.558253 -30.280585 7.125000 0.000000 0.000000 
7.376321 17.096706 1.729031 166.341046 -78.159444 -163.156370 -7.699551 13.195462 -31.460936 7.349307 17.008863 51.696107 0.802471 1.200269 -0.295272 0.059000 -1.567500 -4.311800 -0.678111 -1.737695 -22.860569 -4.715299 -14.161942 41.948059 0.223297 -3.263904 -2.169964 -0.688100 5.303300 -14.775600 -0.278659 1.222694 -0.570518 1.933634 0.274519 0.658067 9.154591 -16.461833 2.755288 4.244000 -7.904900 10.877900 -66.565441 -18.907288 52.693396 37.165713 -45.383887 -18.661402 -0.078363 -0.115182 -13.519628 -7.125000 0.000000 0.000000 63.642275 20.650629 30.844675 -41.610472 45.126352 -22.335709 1.074935 2.587566 -30.328807 7.125000 0.000000 0.000000 
7.378971 17.090300 1.732123 165.851652 -78.032239 -162.696773 -7.811983 13.233684 -31.473627 7.357563 17.024371 51.741256 0.795244 1.217826 -0.381683 0.059500 -1.574300 -4.330500 -0.808211 -1.656169 -22.889484 -4.732615 -14.171766 41.995836 0.211602 -3.221237 -2.126688 -0.691800 5.317100 -14.815300 -0.286204 1.172339 -0.558872 1.963330 0.245785 0.686902 9.244143 -16.556339 2.705214 4.288000 -7.941400 10.852300 -67.032190 -18.970080 52.038070 37.228292 -45.416507 -18.753924 -0.107676 -0.089120 -14.235065 -7.125000 0.000000 0.000000 63.674843 20.566077 30.846538 -41.718798 45.191937 -22.423586 1.066645 2.584382 -30.443037 7.125000 0.000000 0.000000 
7.383168 17.086325 1.730908 166.090867 -78.053118 -162.948258 -7.746025 13.219651 -31.515230 7.375420 17.020362 51.773105 0.761944 1.296911 -0.319912 0.062700 -1.615000 -4.442900 -0.738747 -1.639554 -22.916918 -4.746351 -14.188814 42.061427 0.212073 -3.220571 -2.150432 -0.678700 5.267400 -14.672900 -0.279560 1.135100 -0.643751 1.952639 0.250008 0.245228 9.276168 -16.628739 2.773166 4.282700 -7.978300 10.942900 -67.610513 -18.618796 51.347275 37.483425 -45.547431 -18.980278 -0.183062 -0.087273 -15.869687 -7.125000 0.000000 0.000000 63.842616 19.967440 30.770053 -42.022069 45.369003 -22.683449 1.061755 2.571764 -30.539738 7.125000 0.000000 0.000000 
7.366823 17.092399 1.734663 166.981233 -77.868586 -164.078120 -7.624858 13.350186 -31.304864 7.399042 17.004192 51.802508 0.752448 1.331564 -0.410003 0.061800 -1.603500 -4.411100 -0.626640 -1.486024 -22.710879 -4.732588 -14.186406 42.049283 0.183746 -3.116149 -2.154907 -0.677000 5.261100 -14.654800 -0.260032 1.201047 -0.883058 1.979591 0.342148 -1.152151 9.215330 -16.507004 2.926777 4.279000 -7.972100 11.040900 -68.396767 -17.302981 50.617244 38.135405 -45.909477 -19.502363 -0.322692 -0.132019 -18.890154 -7.125000 0.000000 0.000000 64.068381 18.371283 30.831196 -42.513484 45.677680 -23.104526 1.053418 2.559343 -30.759118 7.125000 0.000000 0.000000 
